<?xml version="1.0" encoding="UTF-8" standalone="no"?>
<!DOCTYPE svg PUBLIC "-//W3C//DTD SVG 1.1//EN" "http://www.w3.org/Graphics/SVG/1.1/DTD/svg11.dtd">
<!-- Generated by Microsoft Visio, SVG Export states.svg States -->
<svg xmlns="http://www.w3.org/2000/svg" xmlns:xlink="http://www.w3.org/1999/xlink" xmlns:ev="http://www.w3.org/2001/xml-events"
		xmlns:v="http://schemas.microsoft.com/visio/2003/SVGExtensions/" width="8.26772in" height="11.6929in"
		viewBox="0 0 595.276 841.89" xml:space="preserve" color-interpolation-filters="sRGB" class="st8">
	<v:documentProperties v:langID="1029" v:metric="true" v:viewMarkup="false">
		<v:userDefs>
			<v:ud v:nameU="msvNoAutoConnect" v:val="VT0(1):26"/>
		</v:userDefs>
	</v:documentProperties>

	<style type="text/css">
	<![CDATA[
		.st1 {fill:#ffffff;stroke:#000000;stroke-linecap:round;stroke-linejoin:round;stroke-width:0.75}
		.st2 {fill:#000000;font-family:Calibri;font-size:1.00001em;font-weight:bold}
		.st3 {marker-end:url(#mrkr3-56);stroke:#000000;stroke-linecap:round;stroke-linejoin:round;stroke-width:0.75}
		.st4 {fill:#000000;fill-opacity:1;stroke:#000000;stroke-opacity:1;stroke-width:0.22935779816514}
		.st5 {fill:#ffffff;stroke:none;stroke-linecap:butt;stroke-width:7.2}
		.st6 {fill:#00b050;font-family:Calibri;font-size:0.666664em;font-weight:bold}
		.st7 {fill:#ff0000;font-family:Calibri;font-size:0.666664em;font-weight:bold}
		.st8 {fill:none;fill-rule:evenodd;font-size:12px;overflow:visible;stroke-linecap:square;stroke-miterlimit:3}
	]]>
	</style>

	<defs id="Markers">
		<g id="lend3">
			<path d="M 2 1 L 0 0 L 2 -1 " style="stroke-linecap:round;stroke-linejoin:round;fill:none"/>
		</g>
		<marker id="mrkr3-56" class="st4" v:arrowType="3" v:arrowSize="2" orient="auto" markerUnits="strokeWidth"
				overflow="visible">
			<use xlink:href="#lend3" transform="scale(-4.36,-4.36) "/>
		</marker>
	</defs>
	<g v:mID="0" v:index="1" v:groupContext="foregroundPage">
		<title>States</title>
		<v:pageProperties v:drawingScale="0.0393701" v:pageScale="0.0393701" v:drawingUnits="24" v:shadowOffsetX="8.50394"
				v:shadowOffsetY="-8.50394"/>
		<v:layer v:name="Connector" v:index="0"/>
		<g id="group1-1" transform="translate(51.8042,-634.394)" v:mID="1" v:groupContext="group">
			<v:userDefs>
				<v:ud v:nameU="visVersion" v:prompt="" v:val="VT0(15):26"/>
			</v:userDefs>
			<title>State</title>
			<g id="shape1-2" v:mID="1" v:groupContext="groupContent">
				<rect x="0" y="797.086" width="94.8167" height="44.8037" rx="8.50394" ry="8.50394" class="st1"/>
			</g>
			<g id="shape2-4" v:mID="2" v:groupContext="shape" transform="translate(0,-22.4)">
				<title>Sheet.2</title>
				<desc>WMODE_STEAM</desc>
				<v:userDefs>
					<v:ud v:nameU="UmlRole" v:prompt="" v:val="VT4(Title)"/>
				</v:userDefs>
				<v:textBlock v:margins="rect(4,4,4,4)" v:tabSpace="42.5197"/>
				<v:textRect cx="47.4084" cy="830.688" width="94.82" height="22.4037"/>
				<path d="M8.5 841.89 L86.31 841.89 A8.50394 8.50394 -180 0 0 94.82 833.39 L94.82 827.99 A8.50394 8.50394 -180 0 0
							 86.31 819.49 L8.5 819.49 A8.50394 8.50394 -180 0 0 0 827.99 L0 833.39 A8.50394 8.50394 -180 0 0 8.5
							 841.89 Z" class="st1"/>
				<text x="5.36" y="834.29" class="st2" v:langID="1033"><v:paragraph v:horizAlign="1"/><v:tabList/>WMODE_STEAM</text>			</g>
			<g id="shape3-7" v:mID="3" v:groupContext="shape">
				<title>Sheet.3</title>
				<v:userDefs>
					<v:ud v:nameU="UmlRole" v:prompt="" v:val="VT4(Body)"/>
				</v:userDefs>
				<path d="M8.5 841.89 L86.31 841.89 A8.50394 8.50394 -180 0 0 94.82 833.39 L94.82 827.99 A8.50394 8.50394 -180 0 0
							 86.31 819.49 L8.5 819.49 A8.50394 8.50394 -180 0 0 0 827.99 L0 833.39 A8.50394 8.50394 -180 0 0 8.5
							 841.89 Z" class="st1"/>
			</g>
		</g>
		<g id="group4-9" transform="translate(260.291,-623.622)" v:mID="4" v:groupContext="group">
			<v:userDefs>
				<v:ud v:nameU="visVersion" v:prompt="" v:val="VT0(15):26"/>
			</v:userDefs>
			<title>State.4</title>
			<g id="shape4-10" v:mID="4" v:groupContext="groupContent">
				<rect x="0" y="797.086" width="94.8167" height="44.8037" rx="8.50394" ry="8.50394" class="st1"/>
			</g>
			<g id="shape5-12" v:mID="5" v:groupContext="shape" transform="translate(0,-22.4)">
				<title>Sheet.5</title>
				<desc>WMODE_COFFEE</desc>
				<v:userDefs>
					<v:ud v:nameU="UmlRole" v:prompt="" v:val="VT4(Title)"/>
				</v:userDefs>
				<v:textBlock v:margins="rect(4,4,4,4)" v:tabSpace="42.5197"/>
				<v:textRect cx="47.4084" cy="830.688" width="94.82" height="22.4037"/>
				<path d="M8.5 841.89 L86.31 841.89 A8.50394 8.50394 -180 0 0 94.82 833.39 L94.82 827.99 A8.50394 8.50394 -180 0 0
							 86.31 819.49 L8.5 819.49 A8.50394 8.50394 -180 0 0 0 827.99 L0 833.39 A8.50394 8.50394 -180 0 0 8.5
							 841.89 Z" class="st1"/>
				<text x="4.38" y="834.29" class="st2" v:langID="1033"><v:paragraph v:horizAlign="1"/><v:tabList/>WMODE_COFFEE</text>			</g>
			<g id="shape6-15" v:mID="6" v:groupContext="shape">
				<title>Sheet.6</title>
				<v:userDefs>
					<v:ud v:nameU="UmlRole" v:prompt="" v:val="VT4(Body)"/>
				</v:userDefs>
				<path d="M8.5 841.89 L86.31 841.89 A8.50394 8.50394 -180 0 0 94.82 833.39 L94.82 827.99 A8.50394 8.50394 -180 0 0
							 86.31 819.49 L8.5 819.49 A8.50394 8.50394 -180 0 0 0 827.99 L0 833.39 A8.50394 8.50394 -180 0 0 8.5
							 841.89 Z" class="st1"/>
			</g>
		</g>
		<g id="group7-17" transform="translate(443.766,-623.622)" v:mID="7" v:groupContext="group">
			<v:userDefs>
				<v:ud v:nameU="visVersion" v:prompt="" v:val="VT0(15):26"/>
			</v:userDefs>
			<title>State.7</title>
			<g id="shape7-18" v:mID="7" v:groupContext="groupContent">
				<rect x="0" y="797.086" width="94.8167" height="44.8037" rx="8.50394" ry="8.50394" class="st1"/>
			</g>
			<g id="shape8-20" v:mID="8" v:groupContext="shape" transform="translate(0,-22.4)">
				<title>Sheet.8</title>
				<desc>WMODE_SLEEP</desc>
				<v:userDefs>
					<v:ud v:nameU="UmlRole" v:prompt="" v:val="VT4(Title)"/>
				</v:userDefs>
				<v:textBlock v:margins="rect(4,4,4,4)" v:tabSpace="42.5197"/>
				<v:textRect cx="47.4084" cy="830.688" width="94.82" height="22.4037"/>
				<path d="M8.5 841.89 L86.31 841.89 A8.50394 8.50394 -180 0 0 94.82 833.39 L94.82 827.99 A8.50394 8.50394 -180 0 0
							 86.31 819.49 L8.5 819.49 A8.50394 8.50394 -180 0 0 0 827.99 L0 833.39 A8.50394 8.50394 -180 0 0 8.5
							 841.89 Z" class="st1"/>
				<text x="8.55" y="834.29" class="st2" v:langID="1033"><v:paragraph v:horizAlign="1"/><v:tabList/>WMODE_SLEEP</text>			</g>
			<g id="shape9-23" v:mID="9" v:groupContext="shape">
				<title>Sheet.9</title>
				<v:userDefs>
					<v:ud v:nameU="UmlRole" v:prompt="" v:val="VT4(Body)"/>
				</v:userDefs>
				<path d="M8.5 841.89 L86.31 841.89 A8.50394 8.50394 -180 0 0 94.82 833.39 L94.82 827.99 A8.50394 8.50394 -180 0 0
							 86.31 819.49 L8.5 819.49 A8.50394 8.50394 -180 0 0 0 827.99 L0 833.39 A8.50394 8.50394 -180 0 0 8.5
							 841.89 Z" class="st1"/>
			</g>
		</g>
		<g id="group10-25" transform="translate(159.13,-771.024)" v:mID="10" v:groupContext="group">
			<v:userDefs>
				<v:ud v:nameU="visVersion" v:prompt="" v:val="VT0(15):26"/>
			</v:userDefs>
			<title>State.10</title>
			<g id="shape10-26" v:mID="10" v:groupContext="groupContent">
				<rect x="0" y="797.086" width="128.336" height="44.8037" rx="8.50394" ry="8.50394" class="st1"/>
			</g>
			<g id="shape11-28" v:mID="11" v:groupContext="shape" transform="translate(0,-22.4)">
				<title>Sheet.11</title>
				<desc>WMODE_BACKFLUSH</desc>
				<v:userDefs>
					<v:ud v:nameU="UmlRole" v:prompt="" v:val="VT4(Title)"/>
				</v:userDefs>
				<v:textBlock v:margins="rect(4,4,4,4)" v:tabSpace="42.5197"/>
				<v:textRect cx="64.1682" cy="830.688" width="128.34" height="22.4037"/>
				<path d="M8.5 841.89 L119.83 841.89 A8.50394 8.50394 -180 0 0 128.34 833.39 L128.34 827.99 A8.50394 8.50394 -180
							 0 0 119.83 819.49 L8.5 819.49 A8.50394 8.50394 -180 0 0 0 827.99 L0 833.39 A8.50394 8.50394 -180 0 0
							 8.5 841.89 Z" class="st1"/>
				<text x="10.45" y="834.29" class="st2" v:langID="1033"><v:paragraph v:horizAlign="1"/><v:tabList/>WMODE_BACKFLUSH</text>			</g>
			<g id="shape12-31" v:mID="12" v:groupContext="shape">
				<title>Sheet.12</title>
				<v:userDefs>
					<v:ud v:nameU="UmlRole" v:prompt="" v:val="VT4(Body)"/>
				</v:userDefs>
				<path d="M8.5 841.89 L119.83 841.89 A8.50394 8.50394 -180 0 0 128.34 833.39 L128.34 827.99 A8.50394 8.50394 -180
							 0 0 119.83 819.49 L8.5 819.49 A8.50394 8.50394 -180 0 0 0 827.99 L0 833.39 A8.50394 8.50394 -180 0 0
							 8.5 841.89 Z" class="st1"/>
			</g>
		</g>
		<g id="group13-33" transform="translate(243.531,-487.834)" v:mID="13" v:groupContext="group">
			<v:userDefs>
				<v:ud v:nameU="visVersion" v:prompt="" v:val="VT0(15):26"/>
			</v:userDefs>
			<title>State.13</title>
			<g id="shape13-34" v:mID="13" v:groupContext="groupContent">
				<rect x="0" y="797.086" width="128.336" height="44.8037" rx="8.50394" ry="8.50394" class="st1"/>
			</g>
			<g id="shape14-36" v:mID="14" v:groupContext="shape" transform="translate(0,-22.4)">
				<title>Sheet.14</title>
				<desc>WMODE_BREWING</desc>
				<v:userDefs>
					<v:ud v:nameU="UmlRole" v:prompt="" v:val="VT4(Title)"/>
				</v:userDefs>
				<v:textBlock v:margins="rect(4,4,4,4)" v:tabSpace="42.5197"/>
				<v:textRect cx="64.1682" cy="830.688" width="128.34" height="22.4037"/>
				<path d="M8.5 841.89 L119.83 841.89 A8.50394 8.50394 -180 0 0 128.34 833.39 L128.34 827.99 A8.50394 8.50394 -180
							 0 0 119.83 819.49 L8.5 819.49 A8.50394 8.50394 -180 0 0 0 827.99 L0 833.39 A8.50394 8.50394 -180 0 0
							 8.5 841.89 Z" class="st1"/>
				<text x="15.25" y="834.29" class="st2" v:langID="1033"><v:paragraph v:horizAlign="1"/><v:tabList/>WMODE_BREWING</text>			</g>
			<g id="shape15-39" v:mID="15" v:groupContext="shape">
				<title>Sheet.15</title>
				<v:userDefs>
					<v:ud v:nameU="UmlRole" v:prompt="" v:val="VT4(Body)"/>
				</v:userDefs>
				<path d="M8.5 841.89 L119.83 841.89 A8.50394 8.50394 -180 0 0 128.34 833.39 L128.34 827.99 A8.50394 8.50394 -180
							 0 0 119.83 819.49 L8.5 819.49 A8.50394 8.50394 -180 0 0 0 827.99 L0 833.39 A8.50394 8.50394 -180 0 0
							 8.5 841.89 Z" class="st1"/>
			</g>
		</g>
		<g id="group16-41" transform="translate(226.772,-340.157)" v:mID="16" v:groupContext="group">
			<v:userDefs>
				<v:ud v:nameU="visVersion" v:prompt="" v:val="VT0(15):26"/>
			</v:userDefs>
			<title>State.16</title>
			<g id="shape16-42" v:mID="16" v:groupContext="groupContent">
				<rect x="0" y="797.086" width="161.856" height="44.8037" rx="8.50394" ry="8.50394" class="st1"/>
			</g>
			<g id="shape17-44" v:mID="17" v:groupContext="shape" transform="translate(0,-22.4)">
				<title>Sheet.17</title>
				<desc>WMODE_BREWING_FINISHED</desc>
				<v:userDefs>
					<v:ud v:nameU="UmlRole" v:prompt="" v:val="VT4(Title)"/>
				</v:userDefs>
				<v:textBlock v:margins="rect(4,4,4,4)" v:tabSpace="42.5197"/>
				<v:textRect cx="80.9281" cy="830.688" width="161.86" height="22.4037"/>
				<path d="M8.5 841.89 L153.35 841.89 A8.50394 8.50394 -180 0 0 161.86 833.39 L161.86 827.99 A8.50394 8.50394 -180
							 0 0 153.35 819.49 L8.5 819.49 A8.50394 8.50394 -180 0 0 0 827.99 L0 833.39 A8.50394 8.50394 -180 0 0
							 8.5 841.89 Z" class="st1"/>
				<text x="5.79" y="834.29" class="st2" v:langID="1033"><v:paragraph v:horizAlign="1"/><v:tabList/>WMODE_BREWING_FINISHED</text>			</g>
			<g id="shape18-47" v:mID="18" v:groupContext="shape">
				<title>Sheet.18</title>
				<v:userDefs>
					<v:ud v:nameU="UmlRole" v:prompt="" v:val="VT4(Body)"/>
				</v:userDefs>
				<path d="M8.5 841.89 L153.35 841.89 A8.50394 8.50394 -180 0 0 161.86 833.39 L161.86 827.99 A8.50394 8.50394 -180
							 0 0 153.35 819.49 L8.5 819.49 A8.50394 8.50394 -180 0 0 0 827.99 L0 833.39 A8.50394 8.50394 -180 0 0
							 8.5 841.89 Z" class="st1"/>
			</g>
		</g>
		<g id="shape19-49" v:mID="19" v:groupContext="shape" transform="translate(290.692,-711.221)">
			<title>Initial state</title>
			<v:userDefs>
				<v:ud v:nameU="visVersion" v:prompt="" v:val="VT0(15):26"/>
			</v:userDefs>
			<ellipse cx="17.0079" cy="824.882" rx="17.0079" ry="17.0079" class="st1"/>
		</g>
		<g id="shape24-51" v:mID="24" v:groupContext="shape" v:layerMember="0" transform="translate(300.613,-711.221)">
			<title>Dynamic connector</title>
			<path d="M7.09 841.89 L7.09 884.68" class="st3"/>
		</g>
		<g id="shape25-57" v:mID="25" v:groupContext="shape" v:layerMember="0" transform="translate(355.108,-638.937)">
			<title>Dynamic connector.25</title>
			<desc>TIMER</desc>
			<v:textBlock v:margins="rect(4,4,4,4)" v:tabSpace="42.5197"/>
			<v:textRect cx="44.3289" cy="834.803" width="40" height="17.6036"/>
			<path d="M0 834.8 L88.66 834.8" class="st3"/>
			<rect v:rectContext="textBkgnd" x="33.583" y="830.003" width="21.492" height="9.59985" class="st5"/>
			<text x="33.58" y="837.2" class="st6" v:langID="1033"><v:paragraph v:horizAlign="1"/><v:tabList/>TIMER</text>		</g>
		<g id="shape26-64" v:mID="26" v:groupContext="shape" v:layerMember="0" transform="translate(300.613,-623.622)">
			<title>Dynamic connector.26</title>
			<desc>SWITCH_BREW</desc>
			<v:textBlock v:margins="rect(4,4,4,4)" v:tabSpace="42.5197"/>
			<v:textRect cx="7.08661" cy="887.382" width="60.35" height="17.6036"/>
			<path d="M7.09 841.89 L7.09 932.87" class="st3"/>
			<rect v:rectContext="textBkgnd" x="-18.1787" y="882.582" width="50.5308" height="9.59985" class="st5"/>
			<text x="-18.18" y="889.78" class="st6" v:langID="1033"><v:paragraph v:horizAlign="1"/><v:tabList/>SWITCH_BREW</text>		</g>
		<g id="shape27-71" v:mID="27" v:groupContext="shape" v:layerMember="0" transform="translate(300.613,-487.834)">
			<title>Dynamic connector.27</title>
			<desc>TIMER</desc>
			<v:textBlock v:margins="rect(4,4,4,4)" v:tabSpace="42.5197"/>
			<v:textRect cx="7.08661" cy="893.326" width="40" height="17.6036"/>
			<path d="M7.09 841.89 L7.09 944.76" class="st3"/>
			<rect v:rectContext="textBkgnd" x="-3.65933" y="888.527" width="21.492" height="9.59985" class="st5"/>
			<text x="-3.66" y="895.73" class="st6" v:langID="1033"><v:paragraph v:horizAlign="1"/><v:tabList/>TIMER</text>		</g>
		<g id="shape28-78" v:mID="28" v:groupContext="shape" v:layerMember="0" transform="translate(491.174,-661.339)">
			<title>Dynamic connector.28</title>
			<path d="M0 834.8 L0 811.78 L-183.47 811.78 L-183.47 834.8" class="st3"/>
		</g>
		<g id="shape30-83" v:mID="30" v:groupContext="shape" v:layerMember="0" transform="translate(243.531,-510.236)">
			<title>Dynamic connector.30</title>
			<desc>SWITCH_BREW</desc>
			<v:textBlock v:margins="rect(4,4,4,4)" v:tabSpace="42.5197"/>
			<v:textRect cx="22.9252" cy="756.85" width="60.35" height="17.6036"/>
			<path d="M0 841.89 L-10.63 841.89 L-10.63 706.1 L16.76 706.1" class="st3"/>
			<rect v:rectContext="textBkgnd" x="-2.34009" y="752.051" width="50.5308" height="9.59985" class="st5"/>
			<text x="-2.34" y="759.25" class="st7" v:langID="1033"><v:paragraph v:horizAlign="1"/><v:tabList/>SWITCH_BREW</text>		</g>
		<g id="shape32-90" v:mID="32" v:groupContext="shape" v:layerMember="0" transform="translate(491.174,-630.709)">
			<title>Dynamic connector.32</title>
			<desc>TIMER</desc>
			<v:textBlock v:margins="rect(4,4,4,4)" v:tabSpace="42.5197"/>
			<v:textRect cx="-79.8852" cy="859.606" width="40" height="17.6036"/>
			<path d="M0 848.98 L0 859.61 L-159.77 859.61 L-159.77 848.98" class="st3"/>
			<rect v:rectContext="textBkgnd" x="-90.6312" y="854.807" width="21.492" height="9.59985" class="st5"/>
			<text x="-90.63" y="862.01" class="st7" v:langID="1033"><v:paragraph v:horizAlign="1"/><v:tabList/>TIMER</text>		</g>
		<g id="shape33-97" v:mID="33" v:groupContext="shape" v:layerMember="0" transform="translate(260.291,-664.097)">
			<title>Dynamic connector.33</title>
			<desc>SWITCH_STEAM</desc>
			<v:textBlock v:margins="rect(4,4,4,4)" v:tabSpace="42.5197"/>
			<v:textRect cx="-67.5354" cy="854.018" width="63.69" height="17.6036"/>
			<path d="M0 848.76 L-39.19 848.76 L-39.19 849.19 L-113.67 849.19" class="st3"/>
			<rect v:rectContext="textBkgnd" x="-94.4727" y="849.218" width="53.8748" height="9.59985" class="st5"/>
			<text x="-94.47" y="856.42" class="st6" v:langID="1033"><v:paragraph v:horizAlign="1"/><v:tabList/>SWITCH_STEAM</text>		</g>
		<g id="shape34-104" v:mID="34" v:groupContext="shape" v:layerMember="0" transform="translate(146.621,-657.51)">
			<title>Dynamic connector.34</title>
			<desc>SWITCH_STEAM</desc>
			<v:textBlock v:margins="rect(4,4,4,4)" v:tabSpace="42.5197"/>
			<v:textRect cx="46.1349" cy="830.424" width="63.69" height="17.6036"/>
			<path d="M0 834.8 L115.07 834.8" class="st3"/>
			<rect v:rectContext="textBkgnd" x="19.1977" y="825.624" width="53.8748" height="9.59985" class="st5"/>
			<text x="19.2" y="832.82" class="st7" v:langID="1033"><v:paragraph v:horizAlign="1"/><v:tabList/>SWITCH_STEAM</text>		</g>
		<g id="shape36-111" v:mID="36" v:groupContext="shape" v:layerMember="0" transform="translate(226.772,-362.559)">
			<title>Dynamic connector.36</title>
			<desc>SWITCH_BREW</desc>
			<v:textBlock v:margins="rect(4,4,4,4)" v:tabSpace="42.5197"/>
			<v:textRect cx="-39.685" cy="728.229" width="60.35" height="17.6036"/>
			<path d="M0 841.89 L-10.63 841.89 L-10.63 558.43 L33.52 558.43" class="st3"/>
			<rect v:rectContext="textBkgnd" x="-64.9503" y="723.429" width="50.5308" height="9.59985" class="st5"/>
			<text x="-64.95" y="730.63" class="st7" v:langID="1033"><v:paragraph v:horizAlign="1"/><v:tabList/>SWITCH_BREW</text>		</g>
	</g>
</svg>
