<svg xmlns="http://www.w3.org/2000/svg" xmlns:xlink="http://www.w3.org/1999/xlink" width="1323.2" height="1870.4"><g transform="translate(0 0)"><path d="M880 221.93c22.1 0 40 17.9 40 40s-17.9 40-40 40H760c-22.1 0-40-17.9-40-40s17.9-40 40-40z" stroke="#000" stroke-width="2" fill="#fff"/><use xlink:href="#a" transform="matrix(1,0,0,1,725,226.9304982593294) translate(18.150000000000006 38.6)"/><path d="M1220 221.93c22.1 0 40 17.9 40 40s-17.9 40-40 40h-120c-22.1 0-40-17.9-40-40s17.9-40 40-40z" stroke="#000" stroke-width="2" fill="#fff"/><use xlink:href="#b" transform="matrix(1,0,0,1,1065,226.9304982593294) translate(23.625 38.6)"/><path d="M820 221.93l.07-3.37.2-3.26.34-3.17.47-3.1.58-3.04.7-2.98.8-2.93.95-2.9 1.07-2.87 1.2-2.84 1.32-2.83 1.46-2.8 1.62-2.82 1.8-2.8 1.95-2.83 2.15-2.84 2.36-2.85 2.6-2.87 2.83-2.9 3.13-2.94 3.43-2.96 3.8-3 4.15-3.03 4.6-3.05 5.1-3.08 5.6-3.08 6.2-3.08 6.88-3.06 7.58-3 8.35-2.9 9.16-2.76 10-2.57 10.85-2.3 11.63-1.96 12.33-1.57 12.86-1.08 13.23-.55h13.34l13.2.55 12.87 1.08 12.33 1.56 11.62 1.95 10.84 2.3 10 2.57 9.17 2.77 8.35 2.9 7.58 3 6.86 3.05 6.2 3.08 5.63 3.08 5.08 3.1 4.6 3.04 4.16 3.03 3.78 3 3.43 2.96 3.13 2.93 2.85 2.9 2.6 2.88 2.35 2.85 2.15 2.82 1.96 2.83 1.78 2.8 1.62 2.82 1.48 2.8 1.32 2.83 1.2 2.84 1.06 2.86.94 2.9.82 2.92.7 2.98.57 3.03.46 3.1.33 3.18.2 3.27.07 3.36" stroke="#19967d" stroke-width="2" fill="none"/><path d="M820.04 221.93H819v-.1zM1160 221.93l-6-13.75 9.23-.9z" fill="#19967d"/><path d="M1161.02 221.93h-2.1l-6.38-14.6 11.97-1.18zm-5.55-12.9l4.22 9.68 2.26-10.3z" fill="#19967d"/><use xlink:href="#c" transform="matrix(1,0,0,1,918.1771408497311,94.40033185551277) translate(0 14.4)"/><path d="M1160 301.93l-.07 3.37-.2 3.26-.34 3.17-.47 3.1-.57 3.03-.7 2.98-.82 2.93-.94 2.9-1.07 2.86-1.2 2.83-1.32 2.83-1.46 2.8-1.62 2.8-1.8 2.82-1.95 2.82-2.15 2.84-2.36 2.85-2.6 2.87-2.83 2.9-3.13 2.94-3.43 2.96-3.78 3-4.18 3.02-4.6 3.06-5.08 3.07-5.62 3.1-6.2 3.07-6.88 3.06-7.58 3-8.35 2.9-9.15 2.76-10 2.57-10.85 2.3-11.63 1.97-12.32 1.56-12.87 1.08-13.22.56-6.66.07-13.3-.28-13.08-.82L951 401.5l-12-1.76-11.23-2.14-10.43-2.45-9.58-2.67-8.75-2.84-7.95-2.96-7.22-3.03-6.53-3.07-5.9-3.1-5.35-3.07-4.83-3.05-4.38-3.04-3.97-3-3.6-3-3.27-2.93-2.98-2.92-2.72-2.9-2.47-2.85-2.25-2.85-2.06-2.82-1.87-2.82-1.7-2.8-1.55-2.8-1.4-2.83-1.26-2.82-1.12-2.85-1-2.88-.88-2.9-.76-2.96-.64-3-.52-3.07-.4-3.15-.26-3.2-.14-3.33-.02-1.7" stroke="#c92d39" stroke-width="2" fill="none"/><path d="M1161 302.03l-1.02-.1h1.02zM826 315.68l-9.24.9 3.24-14.65z" fill="#c92d39"/><path d="M827.45 316.55l-11.96 1.15 3.48-15.77h2.1zm-9.42-1.1l6.5-.63-4.22-9.67z" fill="#c92d39"/><use xlink:href="#d" transform="matrix(1,0,0,1,918.1598253407672,407.9188478834107) translate(0 14.4)"/><path d="M540 221.93c22.1 0 40 17.9 40 40s-17.9 40-40 40H420c-22.1 0-40-17.9-40-40s17.9-40 40-40z" stroke="#000" stroke-width="2" fill="#fff"/><use xlink:href="#e" transform="matrix(1,0,0,1,384.99999999999994,226.9304982593294) translate(11.650000000000006 38.6)"/><path d="M820 221.93l-.07-3.37-.2-3.26-.34-3.17-.47-3.1-.58-3.04-.7-2.98-.8-2.93-.95-2.9-1.07-2.87-1.2-2.84-1.32-2.83-1.46-2.8-1.62-2.82-1.8-2.8-1.95-2.83-2.15-2.84-2.36-2.85-2.6-2.87-2.83-2.9-3.13-2.94-3.43-2.96-3.8-3-4.15-3.03-4.6-3.05-5.1-3.08-5.6-3.08-6.2-3.08-6.88-3.06-7.58-3-8.35-2.9-9.16-2.76-10-2.57-10.85-2.3-11.63-1.96-12.33-1.57-12.86-1.08-13.23-.55H643.3l-13.2.55-12.87 1.08-12.33 1.56-11.62 1.95-10.84 2.3-10 2.57-9.17 2.77-8.35 2.9-7.58 3-6.86 3.05-6.2 3.08-5.63 3.08-5.08 3.1-4.6 3.04-4.16 3.03-3.78 3-3.43 2.96-3.13 2.93-2.85 2.9-2.6 2.88-2.35 2.85-2.15 2.82-1.96 2.83-1.78 2.8-1.62 2.82-1.48 2.8-1.32 2.83-1.2 2.84-1.06 2.86-.94 2.9-.82 2.92-.7 2.98-.57 3.03-.46 3.1-.33 3.18-.2 3.27-.07 3.36" stroke="#19967d" stroke-width="2" fill="none"/><path d="M821 221.93h-1.04l1.04-.1zM486 208.18l-6 13.75-3.23-14.65z" fill="#19967d"/><path d="M487.46 207.32l-6.37 14.6h-2.12l-3.5-15.77zm-7.15 11.4l4.23-9.68-6.5-.63z" fill="#19967d"/><use xlink:href="#f" transform="matrix(1,0,0,1,582.1728537740818,94.40033190822103) translate(0 14.4)"/><path d="M480 301.93l.07 3.37.2 3.26.34 3.17.47 3.1.58 3.04.7 2.98.8 2.93.95 2.9 1.07 2.86 1.2 2.84 1.32 2.82 1.46 2.82 1.63 2.8 1.78 2.82 1.96 2.83 2.15 2.84 2.36 2.86 2.6 2.88 2.84 2.9 3.12 2.94 3.44 2.97 3.8 3 4.16 3.03 4.6 3.06 5.1 3.08 5.62 3.1 6.22 3.07 6.87 3.05 7.58 3 8.37 2.9 9.17 2.77 10 2.57 10.84 2.3 11.62 1.95 12.3 1.55 12.85 1.08 13.2.55 6.65.07 14.82-.3 14.02-.9 13.1-1.36 12.14-1.8 11.15-2.1 10.18-2.4 9.26-2.58 8.4-2.72 7.6-2.83 6.86-2.87 6.22-2.93 5.63-2.94 5.1-2.94 4.64-2.94 4.22-2.93 3.83-2.9 3.5-2.9 3.2-2.87 2.9-2.85 2.68-2.85 2.44-2.83 2.24-2.82 2.06-2.82 1.87-2.82 1.72-2.83 1.56-2.84 1.44-2.86 1.28-2.9 1.16-2.92 1.04-2.96.9-3.02.8-3.07.66-3.15.55-3.22.42-3.3.28-3.43.15-3.53.02-1.8" stroke="#c92d39" stroke-width="2" fill="none"/><path d="M479 302.03v-.1h1.02zM823.33 316.56l-9.23-.84 5.9-13.8z" fill="#c92d39"/><path d="M824.6 317.68l-11.97-1.1 6.28-14.65h2.13zm-9.04-2.83l6.5.6-2.35-10.3z" fill="#c92d39"/><use xlink:href="#g" transform="matrix(1,0,0,1,582.6121387377319,407.99074100919194) translate(0 14.4)"/><path d="M200 222c22.1 0 40 17.9 40 40s-17.9 40-40 40H80c-22.1 0-40-17.9-40-40s17.9-40 40-40z" stroke="#000" stroke-width="2" fill="#fff"/><use xlink:href="#h" transform="matrix(1,0,0,1,45,227) translate(-35.24999999999997 38.6)"/><path d="M480 221.93l-.07-3.37-.2-3.26-.34-3.17-.47-3.1-.57-3.03-.7-2.98-.82-2.93-.94-2.9-1.07-2.86-1.2-2.84-1.32-2.82-1.46-2.8-1.62-2.82-1.78-2.8-1.96-2.83-2.16-2.84-2.36-2.86-2.58-2.87-2.85-2.9-3.12-2.94-3.42-2.96-3.78-3-4.17-3.02-4.6-3.05-5.08-3.07-5.6-3.1-6.22-3.07-6.86-3.05-7.58-3-8.36-2.9-9.16-2.75-10-2.57-10.83-2.3-11.63-1.96-12.3-1.55-12.88-1.08-13.22-.57h-13.34l-13.22.56-12.87 1.07-12.34 1.55-11.63 1.97-10.84 2.3-10.02 2.56-9.17 2.77-8.34 2.9-7.6 3-6.86 3.06-6.2 3.07-5.63 3.1-5.08 3.07-4.6 3.05-4.18 3.02-3.78 3-3.44 2.96-3.13 2.94-2.84 2.9-2.6 2.88-2.35 2.85-2.15 2.84-1.97 2.8-1.78 2.82-1.62 2.8-1.47 2.82-1.34 2.83-1.2 2.84-1.06 2.87-.94 2.9-.82 2.92-.7 2.97-.57 3.03-.46 3.1-.33 3.18-.2 3.26L140 222" stroke="#19967d" stroke-width="2" fill="none"/><path d="M481 221.93h-1.04l1.04-.1zM146 208.25L140 222l-3.23-14.65z" fill="#19967d"/><path d="M147.46 207.4L141.1 222h-2.12l-3.5-15.78zm-7.15 11.38l4.23-9.67-6.5-.62z" fill="#19967d"/><use xlink:href="#i" transform="matrix(1,0,0,1,282.06021152332346,94.4350782594733) translate(0 14.4)"/><path d="M140 302l.05 2.55.17 2.62.28 2.7.4 2.77.56 2.87.7 2.97.85 3.06 1.04 3.18 1.23 3.3 1.44 3.43 1.7 3.57 1.93 3.7 2.24 3.88 2.56 4.03 2.93 4.22 3.33 4.4 3.78 4.57 4.3 4.76 4.86 4.96 5.5 5.15 6.2 5.35 6.96 5.52 7.84 5.7 8.78 5.82 9.84 5.96 11 6.03 12.23 6.08 13.6 6.05 15.1 5.98 16.73 5.8 18.46 5.58 20.33 5.2 22.36 4.76 24.53 4.14 26.88 3.4 29.4 2.45 32.12 1.32 17.12.18 76.2-1.5 52.26-3.2 37.66-3.93 28.22-4.14 21.8-4.14 17.28-4.05 13.98-3.9 11.52-3.73 9.64-3.58 8.18-3.43 7-3.3 6.1-3.16 5.3-3.07 4.7-2.98 4.16-2.9 3.73-2.83 3.36-2.77 3.03-2.73 2.76-2.7 2.5-2.68 2.32-2.68 2.12-2.68 1.95-2.7 1.82-2.7 1.67-2.77 1.54-2.8 1.44-2.9 1.33-3 1.24-3.1 1.13-3.27 1.05-3.45.94-3.7.85-4 .76-4.4.63-5.02.48-5.95.32-7.73-.1-17.53-.2-13" stroke="#c92d39" stroke-width="2" fill="none"/><path d="M139 302.12V302H140zM824.83 316.13l-9.27.13 4.44-14.33z" fill="#c92d39"/><path d="M826.22 317.1l-12.03.18 4.75-15.35h2.1zm-9.3-1.86l6.52-.1-3.4-9.97z" fill="#c92d39"/><use xlink:href="#g" transform="matrix(1,0,0,1,425.68107417078295,463.797231810588) translate(0 14.4)"/><defs><path d="M266 0h-40l-56-210L115 0H75L2-248h35L96-30l15-64 43-154h32l59 218 59-218h35" id="j"/><path d="M240 0l2-218c-23 76-54 145-80 218h-23L58-218 59 0H30v-248h44l77 211c21-75 51-140 76-211h43V0h-30" id="k"/><path d="M140-251c81 0 123 46 123 126C263-46 219 4 140 4 59 4 17-45 17-125s42-126 123-126zm0 227c63 0 89-41 89-101s-29-99-89-99c-61 0-89 39-89 99S79-25 140-24" id="l"/><path d="M30-248c118-7 216 8 213 122C240-48 200 0 122 0H30v-248zM63-27c89 8 146-16 146-99s-60-101-146-95v194" id="m"/><path d="M30 0v-248h187v28H63v79h144v27H63v87h162V0H30" id="n"/><path d="M-5 72V49h209v23H-5" id="o"/><path d="M212-179c-10-28-35-45-73-45-59 0-87 40-87 99 0 60 29 101 89 101 43 0 62-24 78-52l27 14C228-24 195 4 139 4 59 4 22-46 18-125c-6-104 99-153 187-111 19 9 31 26 39 46" id="p"/><path d="M63-220v92h138v28H63V0H30v-248h175v28H63" id="q"/><g id="a"><use transform="matrix(0.05,0,0,0.05,0,0)" xlink:href="#j"/><use transform="matrix(0.05,0,0,0.05,16.95,0)" xlink:href="#k"/><use transform="matrix(0.05,0,0,0.05,31.899999999999995,0)" xlink:href="#l"/><use transform="matrix(0.05,0,0,0.05,45.9,0)" xlink:href="#m"/><use transform="matrix(0.05,0,0,0.05,58.85,0)" xlink:href="#n"/><use transform="matrix(0.05,0,0,0.05,70.85,0)" xlink:href="#o"/><use transform="matrix(0.05,0,0,0.05,80.85,0)" xlink:href="#p"/><use transform="matrix(0.05,0,0,0.05,93.8,0)" xlink:href="#l"/><use transform="matrix(0.05,0,0,0.05,107.80000000000001,0)" xlink:href="#q"/><use transform="matrix(0.05,0,0,0.05,118.75,0)" xlink:href="#q"/><use transform="matrix(0.05,0,0,0.05,129.7,0)" xlink:href="#n"/><use transform="matrix(0.05,0,0,0.05,141.7,0)" xlink:href="#n"/></g><path d="M185-189c-5-48-123-54-124 2 14 75 158 14 163 119 3 78-121 87-175 55-17-10-28-26-33-46l33-7c5 56 141 63 141-1 0-78-155-14-162-118-5-82 145-84 179-34 5 7 8 16 11 25" id="r"/><path d="M127-220V0H93v-220H8v-28h204v28h-85" id="s"/><path d="M205 0l-28-72H64L36 0H1l101-248h38L239 0h-34zm-38-99l-47-123c-12 45-31 82-46 123h93" id="t"/><g id="b"><use transform="matrix(0.05,0,0,0.05,0,0)" xlink:href="#j"/><use transform="matrix(0.05,0,0,0.05,16.95,0)" xlink:href="#k"/><use transform="matrix(0.05,0,0,0.05,31.899999999999995,0)" xlink:href="#l"/><use transform="matrix(0.05,0,0,0.05,45.9,0)" xlink:href="#m"/><use transform="matrix(0.05,0,0,0.05,58.85,0)" xlink:href="#n"/><use transform="matrix(0.05,0,0,0.05,70.85,0)" xlink:href="#o"/><use transform="matrix(0.05,0,0,0.05,80.85,0)" xlink:href="#r"/><use transform="matrix(0.05,0,0,0.05,92.85,0)" xlink:href="#s"/><use transform="matrix(0.05,0,0,0.05,103.80000000000001,0)" xlink:href="#n"/><use transform="matrix(0.05,0,0,0.05,115.80000000000001,0)" xlink:href="#t"/><use transform="matrix(0.05,0,0,0.05,127.80000000000001,0)" xlink:href="#k"/></g><path fill="#19967d" d="M169-182c-1-43-94-46-97-3 18 66 151 10 154 114 3 95-165 93-204 36-6-8-10-19-12-30l50-8c3 46 112 56 116 5-17-69-150-10-154-114-4-87 153-88 188-35 5 8 8 18 10 28" id="u"/><path fill="#19967d" d="M275 0h-61l-44-196L126 0H64L0-248h53L97-49l45-199h58l43 199 44-199h52" id="v"/><path fill="#19967d" d="M24 0v-248h52V0H24" id="w"/><path fill="#19967d" d="M136-208V0H84v-208H4v-40h212v40h-80" id="x"/><path fill="#19967d" d="M67-125c0 53 21 87 73 88 37 1 54-22 65-47l45 17C233-25 199 4 140 4 58 4 20-42 15-125 8-235 124-281 211-232c18 10 29 29 36 50l-46 12c-8-25-30-41-62-41-52 0-71 34-72 86" id="y"/><path fill="#19967d" d="M186 0v-106H76V0H24v-248h52v99h110v-99h50V0h-50" id="z"/><path fill="#19967d" d="M-4 44V30h207v14H-4" id="A"/><path fill="#19967d" d="M24 0v-248h195v40H76v63h132v40H76v65h150V0H24" id="B"/><path fill="#19967d" d="M199 0l-22-63H83L61 0H9l90-248h61L250 0h-51zm-33-102l-36-108c-10 38-24 72-36 108h72" id="C"/><path fill="#19967d" d="M230 0l2-204L168 0h-37L68-204 70 0H24v-248h70l56 185 57-185h69V0h-46" id="D"/><g id="c"><use transform="matrix(0.05,0,0,0.05,0,0)" xlink:href="#u"/><use transform="matrix(0.05,0,0,0.05,12,0)" xlink:href="#v"/><use transform="matrix(0.05,0,0,0.05,28.950000000000003,0)" xlink:href="#w"/><use transform="matrix(0.05,0,0,0.05,33.95,0)" xlink:href="#x"/><use transform="matrix(0.05,0,0,0.05,44.900000000000006,0)" xlink:href="#y"/><use transform="matrix(0.05,0,0,0.05,57.85,0)" xlink:href="#z"/><use transform="matrix(0.05,0,0,0.05,70.80000000000001,0)" xlink:href="#A"/><use transform="matrix(0.05,0,0,0.05,80.80000000000001,0)" xlink:href="#u"/><use transform="matrix(0.05,0,0,0.05,92.80000000000001,0)" xlink:href="#x"/><use transform="matrix(0.05,0,0,0.05,103.75,0)" xlink:href="#B"/><use transform="matrix(0.05,0,0,0.05,115.75,0)" xlink:href="#C"/><use transform="matrix(0.05,0,0,0.05,128.70000000000002,0)" xlink:href="#D"/></g><path fill="#c92d39" d="M169-182c-1-43-94-46-97-3 18 66 151 10 154 114 3 95-165 93-204 36-6-8-10-19-12-30l50-8c3 46 112 56 116 5-17-69-150-10-154-114-4-87 153-88 188-35 5 8 8 18 10 28" id="E"/><path fill="#c92d39" d="M275 0h-61l-44-196L126 0H64L0-248h53L97-49l45-199h58l43 199 44-199h52" id="F"/><path fill="#c92d39" d="M24 0v-248h52V0H24" id="G"/><path fill="#c92d39" d="M136-208V0H84v-208H4v-40h212v40h-80" id="H"/><path fill="#c92d39" d="M67-125c0 53 21 87 73 88 37 1 54-22 65-47l45 17C233-25 199 4 140 4 58 4 20-42 15-125 8-235 124-281 211-232c18 10 29 29 36 50l-46 12c-8-25-30-41-62-41-52 0-71 34-72 86" id="I"/><path fill="#c92d39" d="M186 0v-106H76V0H24v-248h52v99h110v-99h50V0h-50" id="J"/><path fill="#c92d39" d="M-4 44V30h207v14H-4" id="K"/><path fill="#c92d39" d="M24 0v-248h195v40H76v63h132v40H76v65h150V0H24" id="L"/><path fill="#c92d39" d="M199 0l-22-63H83L61 0H9l90-248h61L250 0h-51zm-33-102l-36-108c-10 38-24 72-36 108h72" id="M"/><path fill="#c92d39" d="M230 0l2-204L168 0h-37L68-204 70 0H24v-248h70l56 185 57-185h69V0h-46" id="N"/><g id="d"><use transform="matrix(0.05,0,0,0.05,0,0)" xlink:href="#E"/><use transform="matrix(0.05,0,0,0.05,12,0)" xlink:href="#F"/><use transform="matrix(0.05,0,0,0.05,28.950000000000003,0)" xlink:href="#G"/><use transform="matrix(0.05,0,0,0.05,33.95,0)" xlink:href="#H"/><use transform="matrix(0.05,0,0,0.05,44.900000000000006,0)" xlink:href="#I"/><use transform="matrix(0.05,0,0,0.05,57.85,0)" xlink:href="#J"/><use transform="matrix(0.05,0,0,0.05,70.80000000000001,0)" xlink:href="#K"/><use transform="matrix(0.05,0,0,0.05,80.80000000000001,0)" xlink:href="#E"/><use transform="matrix(0.05,0,0,0.05,92.80000000000001,0)" xlink:href="#H"/><use transform="matrix(0.05,0,0,0.05,103.75,0)" xlink:href="#L"/><use transform="matrix(0.05,0,0,0.05,115.75,0)" xlink:href="#M"/><use transform="matrix(0.05,0,0,0.05,128.70000000000002,0)" xlink:href="#N"/></g><path d="M160-131c35 5 61 23 61 61C221 17 115-2 30 0v-248c76 3 177-17 177 60 0 33-19 50-47 57zm-97-11c50-1 110 9 110-42 0-47-63-36-110-37v79zm0 115c55-2 124 14 124-45 0-56-70-42-124-44v89" id="O"/><path d="M233-177c-1 41-23 64-60 70L243 0h-38l-65-103H63V0H30v-248c88 3 205-21 203 71zM63-129c60-2 137 13 137-47 0-61-80-42-137-45v92" id="P"/><path d="M33 0v-248h34V0H33" id="Q"/><path d="M190 0L58-211 59 0H30v-248h39L202-35l-2-213h31V0h-41" id="R"/><path d="M143 4C61 4 22-44 18-125c-5-107 100-154 193-111 17 8 29 25 37 43l-32 9c-13-25-37-40-76-40-61 0-88 39-88 99 0 61 29 100 91 101 35 0 62-11 79-27v-45h-74v-28h105v86C228-13 192 4 143 4" id="S"/><g id="e"><use transform="matrix(0.05,0,0,0.05,0,0)" xlink:href="#j"/><use transform="matrix(0.05,0,0,0.05,16.95,0)" xlink:href="#k"/><use transform="matrix(0.05,0,0,0.05,31.899999999999995,0)" xlink:href="#l"/><use transform="matrix(0.05,0,0,0.05,45.9,0)" xlink:href="#m"/><use transform="matrix(0.05,0,0,0.05,58.85,0)" xlink:href="#n"/><use transform="matrix(0.05,0,0,0.05,70.85,0)" xlink:href="#o"/><use transform="matrix(0.05,0,0,0.05,80.85,0)" xlink:href="#O"/><use transform="matrix(0.05,0,0,0.05,92.85,0)" xlink:href="#P"/><use transform="matrix(0.05,0,0,0.05,105.80000000000001,0)" xlink:href="#n"/><use transform="matrix(0.05,0,0,0.05,117.80000000000001,0)" xlink:href="#j"/><use transform="matrix(0.05,0,0,0.05,134.75,0)" xlink:href="#Q"/><use transform="matrix(0.05,0,0,0.05,139.75,0)" xlink:href="#R"/><use transform="matrix(0.05,0,0,0.05,152.7,0)" xlink:href="#S"/></g><path fill="#19967d" d="M182-130c37 4 62 22 62 59C244 23 116-4 24 0v-248c84 5 203-23 205 63 0 31-19 50-47 55zM76-148c40-3 101 13 101-30 0-44-60-28-101-31v61zm0 110c48-3 116 14 116-37 0-48-69-32-116-35v72" id="T"/><path fill="#19967d" d="M240-174c0 40-23 61-54 70L253 0h-59l-57-94H76V0H24v-248c93 4 217-23 216 74zM76-134c48-2 112 12 112-38 0-48-66-32-112-35v73" id="U"/><g id="f"><use transform="matrix(0.05,0,0,0.05,0,0)" xlink:href="#u"/><use transform="matrix(0.05,0,0,0.05,12,0)" xlink:href="#v"/><use transform="matrix(0.05,0,0,0.05,28.950000000000003,0)" xlink:href="#w"/><use transform="matrix(0.05,0,0,0.05,33.95,0)" xlink:href="#x"/><use transform="matrix(0.05,0,0,0.05,44.900000000000006,0)" xlink:href="#y"/><use transform="matrix(0.05,0,0,0.05,57.85,0)" xlink:href="#z"/><use transform="matrix(0.05,0,0,0.05,70.80000000000001,0)" xlink:href="#A"/><use transform="matrix(0.05,0,0,0.05,80.80000000000001,0)" xlink:href="#T"/><use transform="matrix(0.05,0,0,0.05,93.75000000000001,0)" xlink:href="#U"/><use transform="matrix(0.05,0,0,0.05,106.7,0)" xlink:href="#B"/><use transform="matrix(0.05,0,0,0.05,118.7,0)" xlink:href="#v"/></g><path fill="#c92d39" d="M182-130c37 4 62 22 62 59C244 23 116-4 24 0v-248c84 5 203-23 205 63 0 31-19 50-47 55zM76-148c40-3 101 13 101-30 0-44-60-28-101-31v61zm0 110c48-3 116 14 116-37 0-48-69-32-116-35v72" id="V"/><path fill="#c92d39" d="M240-174c0 40-23 61-54 70L253 0h-59l-57-94H76V0H24v-248c93 4 217-23 216 74zM76-134c48-2 112 12 112-38 0-48-66-32-112-35v73" id="W"/><g id="g"><use transform="matrix(0.05,0,0,0.05,0,0)" xlink:href="#E"/><use transform="matrix(0.05,0,0,0.05,12,0)" xlink:href="#F"/><use transform="matrix(0.05,0,0,0.05,28.950000000000003,0)" xlink:href="#G"/><use transform="matrix(0.05,0,0,0.05,33.95,0)" xlink:href="#H"/><use transform="matrix(0.05,0,0,0.05,44.900000000000006,0)" xlink:href="#I"/><use transform="matrix(0.05,0,0,0.05,57.85,0)" xlink:href="#J"/><use transform="matrix(0.05,0,0,0.05,70.80000000000001,0)" xlink:href="#K"/><use transform="matrix(0.05,0,0,0.05,80.80000000000001,0)" xlink:href="#V"/><use transform="matrix(0.05,0,0,0.05,93.75000000000001,0)" xlink:href="#W"/><use transform="matrix(0.05,0,0,0.05,106.7,0)" xlink:href="#L"/><use transform="matrix(0.05,0,0,0.05,118.7,0)" xlink:href="#F"/></g><path d="M197 0v-115H63V0H30v-248h33v105h134v-105h34V0h-34" id="X"/><g id="h"><use transform="matrix(0.05,0,0,0.05,0,0)" xlink:href="#j"/><use transform="matrix(0.05,0,0,0.05,16.95,0)" xlink:href="#k"/><use transform="matrix(0.05,0,0,0.05,31.899999999999995,0)" xlink:href="#l"/><use transform="matrix(0.05,0,0,0.05,45.9,0)" xlink:href="#m"/><use transform="matrix(0.05,0,0,0.05,58.85,0)" xlink:href="#n"/><use transform="matrix(0.05,0,0,0.05,70.85,0)" xlink:href="#o"/><use transform="matrix(0.05,0,0,0.05,80.85,0)" xlink:href="#O"/><use transform="matrix(0.05,0,0,0.05,92.85,0)" xlink:href="#P"/><use transform="matrix(0.05,0,0,0.05,105.80000000000001,0)" xlink:href="#n"/><use transform="matrix(0.05,0,0,0.05,117.80000000000001,0)" xlink:href="#j"/><use transform="matrix(0.05,0,0,0.05,134.75,0)" xlink:href="#Q"/><use transform="matrix(0.05,0,0,0.05,139.75,0)" xlink:href="#R"/><use transform="matrix(0.05,0,0,0.05,152.7,0)" xlink:href="#S"/><use transform="matrix(0.05,0,0,0.05,166.7,0)" xlink:href="#o"/><use transform="matrix(0.05,0,0,0.05,176.7,0)" xlink:href="#q"/><use transform="matrix(0.05,0,0,0.05,187.64999999999998,0)" xlink:href="#Q"/><use transform="matrix(0.05,0,0,0.05,192.64999999999998,0)" xlink:href="#R"/><use transform="matrix(0.05,0,0,0.05,205.59999999999997,0)" xlink:href="#Q"/><use transform="matrix(0.05,0,0,0.05,210.59999999999997,0)" xlink:href="#r"/><use transform="matrix(0.05,0,0,0.05,222.59999999999997,0)" xlink:href="#X"/><use transform="matrix(0.05,0,0,0.05,235.54999999999995,0)" xlink:href="#n"/><use transform="matrix(0.05,0,0,0.05,247.54999999999995,0)" xlink:href="#m"/></g><g id="i"><use transform="matrix(0.05,0,0,0.05,0,0)" xlink:href="#x"/><use transform="matrix(0.05,0,0,0.05,10.950000000000001,0)" xlink:href="#w"/><use transform="matrix(0.05,0,0,0.05,15.950000000000001,0)" xlink:href="#D"/><use transform="matrix(0.05,0,0,0.05,30.900000000000002,0)" xlink:href="#B"/><use transform="matrix(0.05,0,0,0.05,42.900000000000006,0)" xlink:href="#U"/></g></defs></g></svg>